<svg xmlns="http://www.w3.org/2000/svg" version="1.1" viewBox="1.0388250350952148 1.7874603271484375 461.76678466796875 473.5262451171875" width="464.00" height="476.00">
<g stroke-width="2.00" fill="none" stroke-linecap="butt">
<path stroke="#b33d80" d="&#10;  M 185.31 80.14&#10;  L 144.72 55.98"/>
<path stroke="#df5263" d="&#10;  M 187.25 126.10&#10;  C 175.60 115.76 164.20 107.03 150.31 100.52"/>
<path stroke="#eb7c49" d="&#10;  M 177.08 144.81&#10;  L 141.91 120.70"/>
<path stroke="#f0a336" d="&#10;  M 156.85 172.50&#10;  L 125.93 147.67"/>
<path stroke="#585ea9" d="&#10;  M 268.55 116.52&#10;  C 253.07 108.85 239.59 98.75 226.33 87.52"/>
<path stroke="#a74082" d="&#10;  M 247.31 163.51&#10;  L 211.94 140.94"/>
<path stroke="#df5263" d="&#10;  M 235.89 183.02&#10;  L 206.41 165.49&#10;  Q 205.98 165.24 205.96 164.73&#10;  L 205.85 161.00"/>
<path stroke="#41a493" d="&#10;  M 55.77 317.18&#10;  C 42.58 327.74 30.78 336.65 16.19 344.09"/>
<path stroke="#3492b2" d="&#10;  M 150.68 414.17&#10;  C 144.87 421.93 139.98 430.15 134.64 438.21&#10;  C 128.44 447.57 120.79 452.96 109.43 453.13"/>
<path stroke="#3c7cb8" d="&#10;  M 267.53 460.31&#10;  C 258.77 445.05 250.67 429.71 244.54 413.20"/>
<path stroke="#4f67af" d="&#10;  M 338.14 408.16&#10;  L 300.93 375.29"/>
<path stroke="#754d9c" d="&#10;  M 389.52 385.42&#10;  L 368.67 366.41"/>
<path stroke="#6155a4" d="&#10;  M 363.81 366.39&#10;  C 351.80 356.14 339.90 347.05 326.08 339.81"/>
<path stroke="#ba407e" d="&#10;  M 459.30 315.58&#10;  L 431.57 298.76&#10;  Q 431.15 298.50 431.14 298.01&#10;  L 431.10 296.03"/>
<path stroke="#e65b5e" d="&#10;  M 391.83 272.94&#10;  L 367.12 242.18"/>
<path stroke="#ec8943" d="&#10;  M 304.00 306.50&#10;  Q 273.22 280.41 239.80 257.91&#10;  Q 228.21 250.10 216.43 242.23"/>
</g>
<path fill="#913d8f" d="&#10;  M 185.31 80.14&#10;  L 144.72 55.98&#10;  Q 139.24 38.73 130.79 22.46&#10;  Q 126.76 14.72 122.29 6.27&#10;  Q 121.40 4.58 121.19 3.45&#10;  A 1.42 1.41 83.8 0 1 122.52 1.79&#10;  Q 123.38 1.75 124.20 2.34&#10;  C 140.03 13.90 153.12 27.72 165.43 43.66&#10;  Q 172.11 52.31 179.39 66.11&#10;  Q 183.20 73.34 185.31 80.14&#10;  Z"/>
<path fill="#3579bf" d="&#10;  M 268.55 116.52&#10;  C 253.07 108.85 239.59 98.75 226.33 87.52&#10;  Q 222.97 61.76 213.56 37.40&#10;  Q 208.76 24.96 202.40 11.55&#10;  Q 201.85 10.40 202.82 8.59&#10;  A 0.62 0.61 26.1 0 1 203.62 8.32&#10;  Q 205.35 9.09 206.91 10.31&#10;  C 230.81 28.93 251.15 53.59 262.61 82.09&#10;  Q 269.27 98.66 268.55 116.52&#10;  Z"/>
<path fill="#d43d71" d="&#10;  M 185.31 80.14&#10;  C 190.37 95.23 192.46 110.80 187.25 126.10&#10;  C 175.60 115.76 164.20 107.03 150.31 100.52&#10;  Q 151.61 92.03 150.87 84.87&#10;  Q 149.44 70.99 144.72 55.98&#10;  L 185.31 80.14&#10;  Z"/>
<path fill="#7a4393" d="&#10;  M 268.55 116.52&#10;  Q 267.97 136.05 256.63 151.62&#10;  Q 252.87 156.78 247.31 163.51&#10;  L 211.94 140.94&#10;  Q 215.36 134.12 218.91 127.37&#10;  Q 223.38 118.87 224.71 113.81&#10;  Q 226.76 105.99 226.62 97.75&#10;  Q 226.53 92.66 226.33 87.52&#10;  C 239.59 98.75 253.07 108.85 268.55 116.52&#10;  Z"/>
<path fill="#e96754" d="&#10;  M 187.25 126.10&#10;  Q 184.08 136.27 177.08 144.81&#10;  L 141.91 120.70&#10;  Q 147.99 111.18 150.31 100.52&#10;  C 164.20 107.03 175.60 115.76 187.25 126.10&#10;  Z"/>
<path fill="#ed903e" d="&#10;  M 141.91 120.70&#10;  L 177.08 144.81&#10;  C 169.74 153.86 162.00 161.89 156.85 172.50&#10;  L 125.93 147.67&#10;  C 129.62 137.62 135.07 130.29 141.91 120.70&#10;  Z"/>
<path fill="#d43d71" d="&#10;  M 211.94 140.94&#10;  L 247.31 163.51&#10;  Q 239.71 172.33 235.89 183.02&#10;  L 206.41 165.49&#10;  Q 205.98 165.24 205.96 164.73&#10;  L 205.85 161.00&#10;  Q 207.11 150.55 211.94 140.94&#10;  Z"/>
<path fill="#f3b62e" d="&#10;  M 125.93 147.67&#10;  L 156.85 172.50&#10;  C 151.54 184.77 152.65 199.88 158.86 211.48&#10;  C 159.67 212.99 160.16 215.66 157.88 215.87&#10;  A 1.48 1.47 -27.9 0 1 156.83 215.55&#10;  C 146.16 206.95 136.42 196.59 129.45 184.78&#10;  Q 119.01 167.09 125.93 147.67&#10;  Z"/>
<path fill="#e96754" d="&#10;  M 205.85 161.00&#10;  L 205.96 164.73&#10;  Q 205.98 165.24 206.41 165.49&#10;  L 235.89 183.02&#10;  C 231.99 198.45 237.01 211.72 245.26 224.54&#10;  A 1.49 1.49 0.0 0 1 244.96 226.49&#10;  Q 243.58 227.65 241.64 226.17&#10;  Q 218.42 208.48 208.80 184.65&#10;  Q 204.59 174.22 205.85 161.00&#10;  Z"/>
<path fill="#4dac7d" d="&#10;  M 55.77 317.18&#10;  C 42.58 327.74 30.78 336.65 16.19 344.09&#10;  C 5.02 313.79 0.12 282.16 1.18 249.77&#10;  Q 1.51 239.55 3.05 229.33&#10;  A 0.61 0.61 0.0 0 1 4.08 228.99&#10;  Q 21.68 246.76 42.32 265.95&#10;  C 43.46 267.01 44.14 268.59 44.35 270.28&#10;  Q 47.33 294.49 55.77 317.18&#10;  Z"/>
<path fill="#e2436d" d="&#10;  M 459.30 315.58&#10;  L 431.57 298.76&#10;  Q 431.15 298.50 431.14 298.01&#10;  L 431.10 296.03&#10;  Q 430.81 289.13 428.89 284.11&#10;  C 422.92 268.49 405.38 267.16 391.83 272.94&#10;  L 367.12 242.18&#10;  C 369.13 242.11 370.95 242.01 372.89 241.28&#10;  C 380.86 238.29 386.66 236.43 395.35 235.11&#10;  C 413.15 232.39 431.99 238.58 444.64 250.90&#10;  C 462.69 268.47 466.68 292.12 459.30 315.58&#10;  Z"/>
<path fill="#ea724e" d="&#10;  M 367.12 242.18&#10;  L 391.83 272.94&#10;  C 378.10 278.39 363.04 285.33 351.13 290.18&#10;  Q 335.56 296.52 324.17 300.42&#10;  Q 319.23 302.12 304.00 306.50&#10;  Q 273.22 280.41 239.80 257.91&#10;  Q 228.21 250.10 216.43 242.23&#10;  L 367.12 242.18&#10;  Z"/>
<path fill="#eda038" d="&#10;  M 216.43 242.23&#10;  Q 228.21 250.10 239.80 257.91&#10;  Q 273.22 280.41 304.00 306.50&#10;  Q 299.05 307.74 294.07 308.89&#10;  Q 281.13 311.87 274.61 313.03&#10;  Q 233.07 320.42 193.49 316.73&#10;  Q 172.87 314.81 150.51 308.98&#10;  Q 116.86 300.21 86.00 281.47&#10;  Q 72.83 273.47 66.08 268.63&#10;  Q 49.90 257.03 34.08 243.35&#10;  Q 33.45 242.81 34.17 242.40&#10;  Q 34.63 242.14 35.50 242.14&#10;  Q 126.01 242.15 216.43 242.23&#10;  Z"/>
<path fill="#694d9f" d="&#10;  M 363.81 366.39&#10;  C 351.80 356.14 339.90 347.05 326.08 339.81&#10;  Q 333.41 325.24 338.56 309.87&#10;  Q 338.75 309.32 339.71 308.44&#10;  Q 340.34 307.88 341.25 307.50&#10;  Q 364.88 297.74 386.18 287.15&#10;  Q 388.13 286.18 387.77 288.32&#10;  C 383.77 312.46 376.59 336.27 367.19 358.91&#10;  Q 365.64 362.62 363.81 366.39&#10;  Z"/>
<path fill="#913d8f" d="&#10;  M 459.30 315.58&#10;  C 452.94 336.26 440.43 352.05 423.12 364.88&#10;  Q 407.25 376.63 389.52 385.42&#10;  L 368.67 366.41&#10;  Q 387.73 356.74 404.27 343.55&#10;  C 419.04 331.77 430.85 315.46 431.10 296.03&#10;  L 431.14 298.01&#10;  Q 431.15 298.50 431.57 298.76&#10;  L 459.30 315.58&#10;  Z"/>
<path fill="#359ca8" d="&#10;  M 55.77 317.18&#10;  Q 57.54 321.54 59.33 325.69&#10;  Q 79.28 371.88 121.30 399.44&#10;  Q 135.18 408.54 150.68 414.17&#10;  C 144.87 421.93 139.98 430.15 134.64 438.21&#10;  C 128.44 447.57 120.79 452.96 109.43 453.13&#10;  Q 103.00 449.70 96.74 445.51&#10;  Q 40.25 407.71 16.19 344.09&#10;  C 30.78 336.65 42.58 327.74 55.77 317.18&#10;  Z"/>
<path fill="#595da9" d="&#10;  M 363.81 366.39&#10;  L 363.29 367.50&#10;  A 0.80 0.80 0.0 0 0 364.37 368.55&#10;  L 368.67 366.41&#10;  L 389.52 385.42&#10;  Q 364.59 398.46 338.14 408.16&#10;  L 300.93 375.29&#10;  Q 315.80 358.90 326.08 339.81&#10;  C 339.90 347.05 351.80 356.14 363.81 366.39&#10;  Z"/>
<path fill="#4570b5" d="&#10;  M 338.14 408.16&#10;  Q 325.29 421.88 313.84 431.57&#10;  Q 293.38 448.89 267.53 460.31&#10;  C 258.77 445.05 250.67 429.71 244.54 413.20&#10;  Q 277.25 400.63 300.93 375.29&#10;  L 338.14 408.16&#10;  Z"/>
<path fill="#3388bb" d="&#10;  M 244.54 413.20&#10;  C 250.67 429.71 258.77 445.05 267.53 460.31&#10;  Q 232.49 475.55 194.25 475.31&#10;  Q 149.04 475.04 109.43 453.13&#10;  C 120.79 452.96 128.44 447.57 134.64 438.21&#10;  C 139.98 430.15 144.87 421.93 150.68 414.17&#10;  Q 197.83 430.25 244.54 413.20&#10;  Z"/>
</svg>